# xmcd
# Track frame offsets:
# 150
# 12785
# 25255
# 45135
# 57522
# 73340
# 87122
# 104790
# 115430
# 129935
# 142597
# 154172
# 166312
# 179632
# 190605
#
# Disc length: 2747 seconds
# Revision: 0
# Processed by: cddbd v1.4PL0 Copyright (c) Steve Scherf et al.
# Submitted via: VisiTrax 2.9.5.180 - For more info visit www.synapsa.com
#
DISCID=c50ab90f
DTITLE=Leroy Van Dyke - At your request
DYEAR=1997
DGENRE=
TTITLE0=Auctioneer
TTITLE1=A fool such as I
TTITLE2=Crazy
TTITLE3=The last ride
TTITLE4=Falling one more time
TTITLE5=Detour
TTITLE6=I gotta have my baby back
TTITLE7=Walk on by
TTITLE8=Born to lose
TTITLE9=Kig of the road
TTITLE10=The touch of the masters hand
TTITLE11=White sport coat
TTITLE12=It don't hurt anymore
TTITLE13=Chattanoogie shoe shine boy
TTITLE14=Bar stools and babies don't mix
EXTD=
EXTT0=
EXTT1=
EXTT2=
EXTT3=
EXTT4=
EXTT5=
EXTT6=
EXTT7=
EXTT8=
EXTT9=
EXTT10=
EXTT11=
EXTT12=
EXTT13=
EXTT14=
PLAYORDER=
